<?xml version="1.0" encoding="utf-8"?>
<!-- Generator: Adobe Illustrator 27.8.1, SVG Export Plug-In . SVG Version: 6.00 Build 0)  -->
<svg version="1.1" id="Livello_6" xmlns="http://www.w3.org/2000/svg" xmlns:xlink="http://www.w3.org/1999/xlink" x="0px" y="0px"
	 viewBox="0 0 841.9 595.3" style="enable-background:new 0 0 841.9 595.3;" xml:space="preserve">
<style type="text/css">
	.st0{fill:url(#SVGID_1_);}
	.st1{fill:url(#SVGID_00000036968288291051660280000010902081292792747673_);}
	.st2{fill:url(#SVGID_00000152970157589835015690000002509507666388534702_);}
	.st3{fill:url(#SVGID_00000027603319836535583750000005776230594746411142_);}
	.st4{fill:#0C7DC2;}
	.st5{fill:#28274D;}
	.st6{fill:#FFFFFE;}
	.st7{font-family:'MuseoSans-500';}
	.st8{font-size:163.8255px;}
	.st9{letter-spacing:-18;}
	.st10{letter-spacing:-3;}
	.st11{letter-spacing:-4;}
</style>
<g>
	
		<linearGradient id="SVGID_1_" gradientUnits="userSpaceOnUse" x1="350.3181" y1="414.3426" x2="313.1008" y2="326.4249" gradientTransform="matrix(1 0 0 -1 0 598)">
		<stop  offset="0" style="stop-color:#28274D"/>
		<stop  offset="1" style="stop-color:#0C7DC2"/>
	</linearGradient>
	<path class="st0" d="M366.2,298.4c-17.1-0.2-30.9-3.4-42.1-8c-19.7-8.2-30.9-20.7-36.5-28.7c0,0,0,0,0,0c-1.6-2.5-3.1-5-4.5-7.6
		c0,0,0,0,0,0c-4-7.9-6.7-16.5-7.8-25.4c-2.5-19.9,2.8-39.6,14.9-55.4c12.1-15.8,29.5-25.9,49.1-28.3c6.9-0.9,13.8-0.7,20.4,0.4
		c-5.3-0.8-10.7-0.9-16.1-0.2c-16,2-30.3,10.2-40.1,23.1c-9.9,12.9-14.2,29-12.2,45.2c0.9,7.3,3.1,14.3,6.4,20.7c0,0,0,0,0,0
		c1.1,2.1,2.3,4.2,3.7,6.2v0c3.5,5,9.7,12.2,19.7,18.3c10.2,12.6,24.6,21.6,37.3,27.8c3.3,1.6,6.4,3,9.4,4.2
		C371.8,292.3,370.6,298.5,366.2,298.4L366.2,298.4z"/>
	
		<linearGradient id="SVGID_00000046324200621209981460000005902499797343676601_" gradientUnits="userSpaceOnUse" x1="304.9275" y1="391.7514" x2="430.6533" y2="411.962" gradientTransform="matrix(1 0 0 -1 0 598)">
		<stop  offset="0" style="stop-color:#28274D"/>
		<stop  offset="0.17" style="stop-color:#203D6B"/>
		<stop  offset="0.42" style="stop-color:#175991"/>
		<stop  offset="0.64" style="stop-color:#116CAB"/>
		<stop  offset="0.84" style="stop-color:#0D78BC"/>
		<stop  offset="1" style="stop-color:#0C7DC2"/>
	</linearGradient>
	<path style="fill:url(#SVGID_00000046324200621209981460000005902499797343676601_);" d="M407.8,213.5c-8.5,3.5-18.1-0.7-21.5-9.4
		c-6.9-17.4-24.5-28-42.8-25.7c-7.4,0.9-14,3.8-19.5,8c-7.4,5.7-12.7,13.8-14.9,23c-0.6,2.4-1,4.9-1.1,7.5c0,0,0,0,0,0
		c-1.5,16.9,4.2,30.7,13.1,41.7c-10-6.1-16.2-13.3-19.7-18.3c0,0,0,0,0,0c-1.3-2-2.6-4.1-3.7-6.2c0,0,0,0,0,0
		c-3.3-6.4-5.5-13.4-6.4-20.7c-2-16.3,2.3-32.3,12.2-45.2c9.9-12.9,24.1-21.1,40.1-23.1c5.5-0.7,10.9-0.6,16.1,0.2
		c0.1,0,0.1,0,0.2,0c2,0.3,4,0.8,6,1.3c0.2,0,0.4,0.1,0.6,0.2c22.3,5.8,41.3,22.1,50.3,44.8C420.3,200.2,416.3,210,407.8,213.5
		L407.8,213.5z"/>
	
		<linearGradient id="SVGID_00000175287239408895468450000005239203100300689829_" gradientUnits="userSpaceOnUse" x1="378.7621" y1="188.9779" x2="383.3699" y2="293.666" gradientTransform="matrix(1 0 0 -1 0 598)">
		<stop  offset="0" style="stop-color:#28274D"/>
		<stop  offset="2.000000e-02" style="stop-color:#272950"/>
		<stop  offset="0.69" style="stop-color:#1365A1"/>
		<stop  offset="1" style="stop-color:#0C7DC2"/>
	</linearGradient>
	<path style="fill:url(#SVGID_00000175287239408895468450000005239203100300689829_);" d="M416.5,430c-9.7,11.6-22.4,19.8-36.6,23.6
		c11.5-3.6,21.8-10.5,29.8-20c11.2-13.3,16.6-30.3,15.2-47.8c-0.6-7.8-2.6-15.4-5.8-22.5c0,0,0,0,0,0c-1.1-2.3-2.3-4.6-3.6-6.8
		c-0.9-1.5-0.9-1.5,0,0c-4.5-7.2-13.9-18.6-30.7-26.5c-4.1-1.9-8.7-3.6-13.7-5c-5.7-4.3-11.7-8-17.4-11.1c-0.5-0.3-1-0.5-1.4-0.8
		c-0.9-0.4-2.3-1.2-4.1-2.1c-1.2-0.6-2.5-1.2-3.7-1.8c-0.2-0.1-0.4-0.2-0.6-0.4c-4.3-2.1-9.4-4.4-13.8-6.1c-1-0.4-0.7-1.8,0.3-1.8
		c8.2,0.1,23.5,0.5,32.2,2.5l0,0c9.8,1.8,18.2,4.6,25.4,8c19.3,9,30,22.1,35.2,30.3c0,0,0,0,0,0c1.5,2.5,2.9,5.1,4.1,7.8
		c0,0,0,0,0,0c3.7,8.1,5.9,16.8,6.6,25.7C435.4,395.3,429.2,414.7,416.5,430L416.5,430z"/>
	
		<linearGradient id="SVGID_00000059292238466636488840000010026171424041347482_" gradientUnits="userSpaceOnUse" x1="325.8238" y1="136.3149" x2="388.9994" y2="255.9524" gradientTransform="matrix(1 0 0 -1 0 598)">
		<stop  offset="0" style="stop-color:#28274D"/>
		<stop  offset="0.3" style="stop-color:#1D4779"/>
		<stop  offset="0.6" style="stop-color:#1364A0"/>
		<stop  offset="0.85" style="stop-color:#0E76B9"/>
		<stop  offset="1" style="stop-color:#0C7DC2"/>
	</linearGradient>
	<path style="fill:url(#SVGID_00000059292238466636488840000010026171424041347482_);" d="M409.7,433.6c-8,9.6-18.3,16.4-29.8,20
		c-4.4,1.2-9,2-13.7,2.4c-7.2,0.6-14.2,0-21-1.4c-24.7-5.4-45.7-23.5-54.4-48.7c-3-8.8,1.5-18.4,10.1-21.5
		c8.6-3.1,18.1,1.5,21.1,10.3c0.2,0.5,0.3,1,0.5,1.5c1.6,4.2,3.9,8,6.6,11.3c8.3,10.1,21.1,15.9,34.5,14.9
		c12.2-1,22.7-7.3,29.5-16.6c2.8-3.8,4.9-8.2,6.3-12.8c0.7-2.4,1.2-4.9,1.5-7.4c0,0,0,0,0,0c3.7-27.2-11.9-47.1-29.8-60.6
		c5.1,1.4,9.6,3.1,13.7,5c16.9,7.9,26.2,19.3,30.7,26.5c3,4.8,3,4.8,0,0c1.3,2.2,2.5,4.5,3.6,6.8c0,0,0,0,0,0
		c3.2,7,5.2,14.7,5.8,22.5C426.2,403.3,420.8,420.3,409.7,433.6L409.7,433.6z"/>
	<circle class="st4" cx="379.1" cy="378.3" r="16"/>
	<circle class="st4" cx="419" cy="155" r="16"/>
	<circle class="st5" cx="309.5" cy="367.7" r="7.6"/>
	<circle class="st4" cx="333.8" cy="196.9" r="7.6"/>
	<circle class="st5" cx="345.9" cy="188.3" r="4.2"/>
	<circle class="st5" cx="422.1" cy="178.4" r="4.2"/>
	<circle class="st4" cx="320.9" cy="360.7" r="4.2"/>
	<circle class="st5" cx="364" cy="396" r="4.2"/>
</g>
<text transform="matrix(1 0 0 1 16.2651 327.5469)" class="st6 st7 st8 st9">F</text>
<text transform="matrix(1 0 0 1 83.6729 327.5469)" class="st6 st7 st8 st10">.</text>
<text transform="matrix(1 0 0 1 121.1826 327.5469)" class="st6 st7 st8 st11">l</text>
<text transform="matrix(1 0 0 1 160.2764 327.5469)" class="st6 st7 st8 st10">l</text>
<text transform="matrix(1 0 0 1 199.7197 327.5469)" class="st6 st7 st8">i </text>
<text transform="matrix(1 0 0 1 282.6099 327.5469)" class="st6 st7 st8 st10">S</text>
<text transform="matrix(1 0 0 1 368.5503 327.5469)" class="st6 st7 st8 st10">i</text>
<text transform="matrix(1 0 0 1 405.2461 327.5469)" class="st6 st7 st8 st10">m</text>
<text transform="matrix(1 0 0 1 552.2607 327.5469)" class="st6 st7 st8 st10">o</text>
<text transform="matrix(1 0 0 1 651.0781 327.5469)" class="st6 st7 st8 st10">n</text>
<text transform="matrix(1 0 0 1 746.7988 327.5469)" class="st6 st7 st8">e</text>
</svg>
