<?xml version="1.0" encoding="UTF-8"?>
<svg id="Livello_6" data-name="Livello 6" xmlns="http://www.w3.org/2000/svg" xmlns:xlink="http://www.w3.org/1999/xlink" viewBox="0 0 841.89 595.28">
  <defs>
    <style>
      .cls-1 {
        fill: url(#Sfumatura_senza_nome_39);
      }

      .cls-1, .cls-2, .cls-3, .cls-4, .cls-5, .cls-6 {
        stroke-width: 0px;
      }

      .cls-2 {
        fill: url(#Sfumatura_senza_nome_38);
      }

      .cls-3 {
        fill: url(#Sfumatura_senza_nome_36);
      }

      .cls-4 {
        fill: url(#Sfumatura_senza_nome_37);
      }

      .cls-5 {
        fill: #28274d;
      }

      .cls-6 {
        fill: #0c7dc2;
      }
    </style>
    <linearGradient id="Sfumatura_senza_nome_37" data-name="Sfumatura senza nome 37" x1="309.7" y1="133.63" x2="256.15" y2="260.13" gradientUnits="userSpaceOnUse">
      <stop offset="0" stop-color="#28274d"/>
      <stop offset="1" stop-color="#0c7dc2"/>
    </linearGradient>
    <linearGradient id="Sfumatura_senza_nome_36" data-name="Sfumatura senza nome 36" x1="244.4" y1="166.14" x2="425.3" y2="137.06" gradientUnits="userSpaceOnUse">
      <stop offset="0" stop-color="#28274d"/>
      <stop offset=".17" stop-color="#203d6b"/>
      <stop offset=".42" stop-color="#175991"/>
      <stop offset=".64" stop-color="#116cab"/>
      <stop offset=".84" stop-color="#0d78bc"/>
      <stop offset="1" stop-color="#0c7dc2"/>
    </linearGradient>
    <linearGradient id="Sfumatura_senza_nome_38" data-name="Sfumatura senza nome 38" x1="350.65" y1="457.9" x2="357.28" y2="307.27" gradientUnits="userSpaceOnUse">
      <stop offset="0" stop-color="#28274d"/>
      <stop offset=".02" stop-color="#272950"/>
      <stop offset=".69" stop-color="#1365a1"/>
      <stop offset="1" stop-color="#0c7dc2"/>
    </linearGradient>
    <linearGradient id="Sfumatura_senza_nome_39" data-name="Sfumatura senza nome 39" x1="274.46" y1="533.67" x2="365.36" y2="361.53" gradientUnits="userSpaceOnUse">
      <stop offset="0" stop-color="#28274d"/>
      <stop offset=".3" stop-color="#1d4779"/>
      <stop offset=".6" stop-color="#1364a0"/>
      <stop offset=".85" stop-color="#0e76b9"/>
      <stop offset="1" stop-color="#0c7dc2"/>
    </linearGradient>
  </defs>
  <path class="cls-4" d="m332.54,298.78c-24.57-.28-44.52-4.9-60.56-11.54-28.32-11.73-44.49-29.75-52.5-41.3,0,0,0,0,0-.02-2.36-3.53-4.5-7.2-6.43-10.98-.03-.03-.03-.05-.03-.05-5.8-11.34-9.63-23.72-11.21-36.54-3.56-28.69,4.07-57.02,21.45-79.78,17.39-22.75,42.46-37.2,70.59-40.69,9.96-1.23,19.85-1.01,29.42.55-7.56-1.15-15.35-1.28-23.2-.31-23.02,2.85-43.53,14.64-57.75,33.21-14.23,18.56-20.47,41.68-17.57,65.08,1.29,10.46,4.43,20.56,9.16,29.8,0,0,0,.02.02.05,1.58,3.08,3.34,6.07,5.27,8.95,0,0,0,.02,0,.02,5.02,7.23,13.97,17.56,28.33,26.3,14.65,18.08,35.33,31.12,53.69,40.01,4.7,2.28,9.24,4.28,13.49,6.02,5.87,2.42,4.16,11.28-2.16,11.21Z"/>
  <path class="cls-3" d="m392.42,176.53c-12.17,4.97-26.05-1.06-30.99-13.49-9.97-25.05-35.31-40.27-61.63-37.01-10.58,1.31-20.14,5.43-28.06,11.53-10.58,8.15-18.24,19.85-21.49,33.12-.86,3.5-1.4,7.1-1.61,10.79,0,.02,0,.04,0,.05-2.19,24.31,6.01,44.12,18.89,60.02-14.36-8.74-23.31-19.07-28.33-26.3,0,0,0,0,0-.02-1.93-2.88-3.69-5.87-5.27-8.95-.02-.03-.02-.05-.02-.05-4.73-9.24-7.87-19.34-9.16-29.8-2.9-23.4,3.34-46.51,17.57-65.08,14.22-18.57,34.73-30.36,57.75-33.21,7.85-.97,15.64-.84,23.2.31.1,0,.2.03.29.04,2.92.48,5.8,1.08,8.66,1.8.29.07.57.14.86.23,32.07,8.4,59.45,31.85,72.44,64.49,4.94,12.43-.91,26.55-13.09,31.53Z"/>
  <path class="cls-2" d="m404.87,488.05c-14.01,16.72-32.27,28.42-52.65,34.02,16.56-5.2,31.36-15.06,42.88-28.82,16.08-19.18,23.85-43.62,21.88-68.82-.88-11.26-3.74-22.22-8.35-32.35,0,0,0-.02-.03-.05-1.53-3.37-3.26-6.66-5.18-9.84t0-.02c-6.53-10.4-19.94-26.78-44.22-38.14-5.91-2.77-12.48-5.23-19.75-7.24-8.27-6.25-16.9-11.56-25.08-15.99-.7-.38-1.38-.73-2.07-1.1-1.24-.64-3.3-1.7-5.86-2.99-1.79-.88-3.56-1.74-5.28-2.53-.34-.15-.64-.33-.92-.52-6.16-2.98-13.49-6.37-19.91-8.84-1.39-.54-.99-2.61.5-2.59,11.85.13,33.75.77,46.4,3.6l-.03.03c14.1,2.59,26.23,6.63,36.6,11.49,27.77,12.99,43.11,31.73,50.58,43.63,0,0,0,0,0,.02,2.2,3.63,4.18,7.4,5.94,11.26.02.04.03.06.03.06,5.27,11.59,8.54,24.13,9.54,37.01,2.26,28.82-6.63,56.78-25.04,78.72Z"/>
  <path class="cls-1" d="m395.1,493.25c-11.52,13.75-26.33,23.62-42.88,28.82-6.38,1.75-12.97,2.91-19.7,3.44-10.32.81-20.47.07-30.23-2.05-35.56-7.73-65.75-33.78-78.31-70.03-4.37-12.64,2.11-26.47,14.5-30.9,12.39-4.43,25.98,2.23,30.35,14.87.24.7.49,1.4.77,2.09,2.33,6.01,5.55,11.47,9.49,16.26,11.92,14.57,30.3,22.92,49.64,21.4,17.56-1.38,32.72-10.55,42.45-23.94,4.01-5.51,7.1-11.74,9.07-18.43,1.01-3.46,1.72-7.04,2.1-10.7,0-.02,0-.03,0-.05,5.31-39.13-17.08-67.72-42.9-87.22,7.27,2,13.84,4.47,19.75,7.24,24.27,11.36,37.68,27.74,44.22,38.14t0,.02c1.92,3.18,3.65,6.47,5.18,9.84.02.03.03.05.03.05,4.6,10.13,7.46,21.09,8.35,32.35,1.97,25.19-5.8,49.63-21.88,68.82Z"/>
  <circle class="cls-6" cx="351.19" cy="413.74" r="22.95"/>
  <circle class="cls-6" cx="408.57" cy="92.41" r="22.95"/>
  <circle class="cls-5" cx="250.91" cy="398.44" r="10.93"/>
  <circle class="cls-6" cx="285.95" cy="152.7" r="10.93"/>
  <circle class="cls-5" cx="303.37" cy="140.26" r="6.08"/>
  <circle class="cls-5" cx="412.94" cy="126.01" r="6.08"/>
  <circle class="cls-6" cx="267.34" cy="388.3" r="6.08"/>
  <circle class="cls-5" cx="329.33" cy="439.15" r="6.08"/>
</svg>